<?xml version="1.0" encoding="UTF-8"?>
<svg id="_Слой_1" data-name="Слой 1" xmlns="http://www.w3.org/2000/svg" viewBox="0 0 456.71 181.85">
  <defs>
    <style>
      .cls-1 {
        fill: rgb(229 231 235);
      }

      .cls-2 {
        fill: #0B322F;
      }
    </style>
  </defs>
  <g>
    <rect class="cls-2" width="456.71" height="181.85"/>
    <path class="cls-1" d="M250.12,63.8c4.15-8.96,7.92-26.13,23.1-37.3,26.05-20.43,57.88-20.11,62.97-20.43,5.94-.35,67.44-2.83,117.37-.73-29.1,20.1-169.4,54.07-203.44,58.46Z"/>
    <path class="cls-1" d="M207.28,63.8c-4.18-8.96-7.98-26.13-23.28-37.3C157.75,6.08,125.67,6.4,120.54,6.08c-5.98-.35-67.96-2.83-118.29-.73C31.58,25.44,172.97,59.42,207.28,63.8Z"/>
    <path class="cls-1" d="M207.28,120.68c-4.18,8.64-7.98,25.18-23.28,35.94-26.25,19.69-58.33,19.38-63.47,19.69-5.98,.33-67.96,2.73-118.29,.7,29.33-19.37,170.72-52.11,205.03-56.34Z"/>
    <path class="cls-1" d="M250.1,120.68c4.15,8.64,7.92,25.18,23.11,35.94,26.06,19.69,57.9,19.38,63,19.69,5.94,.33,67.47,2.73,117.42,.7-29.12-19.37-169.48-52.11-203.54-56.34Z"/>
  </g>
  <g>
    <path class="cls-1" d="M66.31,79.67c3.72-2.45,7.89-3.68,12.52-3.68,3.36,0,6.1,.75,8.23,2.26s3.19,3.46,3.19,5.85c0,3.19-1.84,5.32-5.53,6.4v.26c.38,.09,.83,.22,1.36,.38,1.73-.41,3.1-1.23,4.09-2.48s1.49-2.76,1.49-4.52c0-2.22-.91-4.19-2.74-5.91v-.14l.26,.21c2.05,1.58,3.07,3.6,3.07,6.07,0,3.41-1.77,5.78-5.3,7.12,1.53,.7,2.72,1.7,3.57,3s1.28,2.76,1.28,4.38c0,2.33-.84,4.19-2.53,5.59s-3.94,2.1-6.75,2.1h-16.78l3.23-2.77v-10.15c-.92,0-2,.09-3.23,.28l-.19-.68c1.39-.14,2.53-.21,3.42-.21v-1.24h-.59c-.88,0-1.98,.06-3.3,.19l1.03-2.25,.38,.02c.61,.05,1.07,.07,1.38,.07,.47,0,.84,.02,1.1,.07v-8.81l-2.65-1.41Zm24.89,13.78c1.67,1.3,2.51,3.27,2.51,5.91s-.93,4.85-2.79,6.59c-1.81,1.69-4.48,2.53-7.99,2.53h-15.94l-.4-.63h14.79c3.22,0,5.54-.33,6.96-.98,3.16-1.47,4.73-4.02,4.73-7.66,0-2.03-.72-3.88-2.16-5.53l.28-.21Zm-17.55-14.13v10.57c.17-.02,.29-.02,.35-.02l.42,.02h.4v-9.59c1.34-.62,2.66-.94,3.94-.94,1.47,0,2.63,.27,3.48,.8s1.57,1.44,2.17,2.72l-.66-.38c-1.17-1.77-2.84-2.65-5.02-2.65-1.22,0-2.31,.34-3.28,1.03v9h.98c2.98,0,5.21-.5,6.67-1.49s2.19-2.51,2.19-4.56c0-1.8-.61-3.25-1.82-4.35s-2.8-1.65-4.77-1.65c-1.73,0-3.42,.49-5.06,1.48Zm0,12.49v12.91h1.17v-11.51c1.11-.08,1.91-.12,2.39-.12,2.59,0,4.47,.24,5.64,.73s2.09,1.41,2.78,2.77h-.28c-.77-1.08-1.73-1.82-2.88-2.24s-2.85-.62-5.09-.62l-1.92,.05v10.95h.75l3.4-.12c4.41-.31,6.61-2.45,6.61-6.42,0-2.48-.73-4.18-2.18-5.1s-4.17-1.37-8.16-1.37c-.39,0-1.13,.03-2.23,.09Z"/>
    <path class="cls-1" d="M120.84,76.48l-2.44,2.77,3.84,10.22,.94-.52-3.47-9.23,2.48-2.86,.61,.26-2.37,2.74,3.28,8.74c.19-.14,.3-.23,.33-.26l.77-.66c.47-.38,.77-.64,.89-.8,.41,1.78,1.03,3.38,1.88,4.78-.45-.03-.78-.05-.98-.05-1.48,0-2.57,.23-3.26,.7l4.24,11.51,3.52,2.72h-11.84l3.23-2.72-2.6-6.84c-1.72,1.73-3.04,3.38-3.96,4.95l-.54-.14c.92-1.53,2.3-3.24,4.12-5.13l.19-.23-.45-1.03c-1.86,1.55-3.4,3.34-4.62,5.39l-.42-.68c-.81-1.3-1.85-2.77-3.12-4.43l-.23-.28c-1.2,2.67-1.8,4.84-1.8,6.52,0,.98,.17,1.82,.5,2.5s1.14,1.82,2.43,3.41c.11,.14,.28,.36,.52,.66h-12.66l-.47-.63h11.93l-.4-.49c-1.03-1.25-1.71-2.22-2.03-2.92s-.48-1.51-.48-2.45c0-1.59,.65-3.97,1.95-7.12l-1.03-1.08c-.2,.5-.46,1.23-.77,2.2l-.77,2.39c-.42,1.28-.63,2.34-.63,3.19s.15,1.6,.45,2.18,.92,1.37,1.88,2.37c.09,.09,.23,.24,.42,.45h-11.72c2.23-1.16,4-2.71,5.31-4.66s2.6-4.97,3.88-9.05l.09-.33c-.83-.7-2.02-1.13-3.59-1.29,.86-1.28,1.52-2.62,1.99-4.01,.22,.2,.35,.33,.4,.38l1.05,.98c.36,.34,.79,.7,1.29,1.05l.42-1.03-.28-.23c-.78-.69-1.44-1.24-1.97-1.66l-.21-.16,.38-.52c.83,.55,1.62,1.18,2.39,1.9l3.19-8.77-2.48-2.67h10.8Zm-6.84,4.8l-3.73,9.84c1.19,1.22,2.21,2.42,3.07,3.61l1.08,1.5s.09,.12,.23,.3c.14-.14,.22-.23,.23-.26l.33-.4c.05-.06,.13-.16,.26-.3-1.09-1.69-2.37-3.21-3.82-4.57l3-7.92-.66-1.8Zm1.05,2.72l-2.58,6.8c.14,.16,.22,.25,.23,.28l.96,1.08c.52,.56,1.17,1.44,1.97,2.62l.23,.35c.67-.84,1.47-1.68,2.39-2.51l-3.21-8.62Zm12.73,4.01c.34,1.41,1.2,3.34,2.58,5.79-.34-.05-.54-.07-.59-.07l-1.9-.16c-.86-.08-1.48-.12-1.88-.12-.06,0-.22,0-.47,.02l3.91,10.38,5.23,4.62h-13.57l-.45-.63h12.45l-4.22-3.73-4.17-11.04c.53-.14,1.14-.21,1.83-.21,.84,0,1.78,.07,2.81,.21l-.28-.52c-1-1.84-1.67-3.51-2.02-4.99l.73,.45Z"/>
    <path class="cls-1" d="M138.96,79.3c3.7-2.14,7.69-3.21,11.95-3.21,3.31,0,6.04,.72,8.19,2.16s3.22,3.27,3.22,5.48c0,1.81-.7,3.42-2.11,4.82s-3.33,2.41-5.77,3.04c1.08,2.97,2.54,5.86,4.39,8.67s3.71,4.97,5.57,6.47l-.35,.12c-2.33,.8-4.61,1.92-6.84,3.38l-.35,.23-.12-.75c-1-6.05-2.4-11.17-4.2-15.38l-.09-.23c-1.08,.5-2.52,.9-4.34,1.2l-.19,.02v8.77l4.12,4.41h-12.12l-.38-.63h11.16l-3.4-3.61v-9.45l.49-.07c1.78-.19,3.27-.54,4.48-1.05-.09-.19-.15-.3-.16-.35l-.23-.68s-.05-.14-.12-.28c-.97,.28-2.8,.59-5.48,.91l-.26,.05v10.45l2.67,2.79h-10.36l3.05-2.79v-7.88l-.19,.02c-.91,.2-1.73,.43-2.46,.68l-.19,.07-.21-.47c.69-.27,1.23-.45,1.62-.54l1.24-.3,.19-.05v-1.22c-.92,0-2.07,.2-3.45,.61l-.26,.09c.03-.22,.19-.73,.47-1.52,.03-.06,.14-.41,.33-1.05l.07-.21c.7,.05,1.25,.07,1.64,.07,.42,0,.81-.02,1.17-.07v-11.53c-.72-.44-1.46-.8-2.23-1.1l-.19-.07Zm7.08-.61v12.63c.45,0,.88-.04,1.29-.12v-11.53c.86-.23,1.89-.35,3.09-.35,3.05,0,5.12,1,6.21,3-1.16-.94-2.17-1.58-3.05-1.93s-1.92-.53-3.14-.53c-.95,0-1.79,.09-2.51,.28v11.06l.26-.05c3.08-.56,5.36-1.45,6.86-2.66s2.24-2.79,2.24-4.72c0-1.73-.67-3.17-2.02-4.3s-3.04-1.7-5.09-1.7c-1.64,0-3.02,.3-4.15,.91Zm11.32,14.06c.98,3.22,2.73,6.37,5.23,9.45,1.56,1.92,3.54,3.65,5.93,5.18-3.58,.95-6.94,2.41-10.08,4.36l-.21,.14-.47-.38c2.98-1.95,6.16-3.39,9.54-4.31-4.5-3-8.04-7.8-10.62-14.39l-.14-.4c4.78-1.81,7.17-4.58,7.17-8.3,0-1.53-.62-3.2-1.85-5.02,1.58,1.44,2.37,3.27,2.37,5.48,0,3.59-2.29,6.32-6.87,8.18Z"/>
    <path class="cls-1" d="M171.37,79.67c3.72-2.45,7.89-3.68,12.52-3.68,3.36,0,6.1,.75,8.23,2.26s3.19,3.46,3.19,5.85c0,3.19-1.84,5.32-5.53,6.4v.26c.38,.09,.83,.22,1.36,.38,1.73-.41,3.1-1.23,4.09-2.48s1.49-2.76,1.49-4.52c0-2.22-.91-4.19-2.74-5.91v-.14l.26,.21c2.05,1.58,3.07,3.6,3.07,6.07,0,3.41-1.77,5.78-5.3,7.12,1.53,.7,2.72,1.7,3.57,3s1.28,2.76,1.28,4.38c0,2.33-.84,4.19-2.53,5.59s-3.94,2.1-6.75,2.1h-16.78l3.23-2.77v-10.15c-.92,0-2,.09-3.23,.28l-.19-.68c1.39-.14,2.53-.21,3.42-.21v-1.24h-.59c-.88,0-1.98,.06-3.3,.19l1.03-2.25,.38,.02c.61,.05,1.07,.07,1.38,.07,.47,0,.84,.02,1.1,.07v-8.81l-2.65-1.41Zm24.89,13.78c1.67,1.3,2.51,3.27,2.51,5.91s-.93,4.85-2.79,6.59c-1.81,1.69-4.48,2.53-7.99,2.53h-15.94l-.4-.63h14.79c3.22,0,5.54-.33,6.96-.98,3.16-1.47,4.73-4.02,4.73-7.66,0-2.03-.72-3.88-2.16-5.53l.28-.21Zm-17.55-14.13v10.57c.17-.02,.29-.02,.35-.02l.42,.02h.4v-9.59c1.34-.62,2.66-.94,3.94-.94,1.47,0,2.63,.27,3.48,.8s1.57,1.44,2.17,2.72l-.66-.38c-1.17-1.77-2.84-2.65-5.02-2.65-1.22,0-2.31,.34-3.28,1.03v9h.98c2.98,0,5.21-.5,6.67-1.49s2.19-2.51,2.19-4.56c0-1.8-.61-3.25-1.82-4.35s-2.8-1.65-4.77-1.65c-1.73,0-3.42,.49-5.06,1.48Zm0,12.49v12.91h1.17v-11.51c1.11-.08,1.91-.12,2.39-.12,2.59,0,4.47,.24,5.64,.73s2.09,1.41,2.78,2.77h-.28c-.77-1.08-1.73-1.82-2.88-2.24s-2.85-.62-5.09-.62l-1.92,.05v10.95h.75l3.4-.12c4.41-.31,6.61-2.45,6.61-6.42,0-2.48-.73-4.18-2.18-5.1s-4.17-1.37-8.16-1.37c-.39,0-1.13,.03-2.23,.09Z"/>
    <path class="cls-1" d="M229.59,76.48l-.38,.45c-1.59,1.95-2.86,4.2-3.8,6.73-.16-.36-.27-.62-.35-.8-.86-1.88-1.78-3.09-2.77-3.63s-2.75-.82-5.3-.82c-1.17,0-2.58,.04-4.22,.12v10.78h1.5v-9.54c1.19-.11,2.32-.16,3.4-.16,1.98,0,3.45,.21,4.38,.63s1.77,1.24,2.51,2.46c-.22-.16-.38-.27-.47-.35-1.27-1-2.18-1.59-2.74-1.78s-1.67-.28-3.33-.28c-.5,0-1.39,.03-2.67,.09l-.49,.02v8.91h4.31l3.02-4.15v10.1l-3.02-3.91h-6.4v13.15h1.5v-12.05h5.09l.61,.61h-5.11v11.44c3.19,0,5.45-.23,6.8-.68s2.4-1.34,3.16-2.67l1.24-2.13c.05-.09,.14-.27,.28-.52,.41,1.72,.91,3.09,1.51,4.12s1.6,2.23,2.99,3.61h-26.27l3.56-2.72v-10.45c-1.31,.16-2.5,.56-3.56,1.22l-.33-.49c.95-.69,2.25-1.13,3.89-1.34v-1.1c-.27-.03-.45-.05-.56-.05-1.59,0-3.05,.59-4.36,1.76,.72-2.5,2.36-3.75,4.92-3.75v-10.01l-3.56-2.81h25.01Zm3.94,29.88l-1.22,2.11h-25.59l-.38-.63h25.66l.8-1.48c-2.25-2.08-3.84-4.3-4.76-6.66l.75,.28c.86,2,2.31,4,4.36,6l.38,.38Zm-9.7-20.44v10.36l-.59-.3v-10.36l.59,.3Zm6.89-7.8l-.16,.21c-1.91,2.56-3.18,4.71-3.82,6.45l-.4-.49c1.05-2.42,2.4-4.64,4.05-6.66l.33,.49Z"/>
    <path class="cls-1" d="M237.52,79.3c3.7-2.14,7.69-3.21,11.95-3.21,3.31,0,6.04,.72,8.19,2.16s3.22,3.27,3.22,5.48c0,1.81-.7,3.42-2.11,4.82s-3.33,2.41-5.77,3.04c1.08,2.97,2.54,5.86,4.39,8.67s3.71,4.97,5.57,6.47l-.35,.12c-2.33,.8-4.61,1.92-6.84,3.38l-.35,.23-.12-.75c-1-6.05-2.4-11.17-4.2-15.38l-.09-.23c-1.08,.5-2.52,.9-4.34,1.2l-.19,.02v8.77l4.12,4.41h-12.12l-.38-.63h11.16l-3.4-3.61v-9.45l.49-.07c1.78-.19,3.27-.54,4.48-1.05-.09-.19-.15-.3-.16-.35l-.23-.68s-.05-.14-.12-.28c-.97,.28-2.8,.59-5.48,.91l-.26,.05v10.45l2.67,2.79h-10.36l3.05-2.79v-7.88l-.19,.02c-.91,.2-1.73,.43-2.46,.68l-.19,.07-.21-.47c.69-.27,1.23-.45,1.62-.54l1.24-.3,.19-.05v-1.22c-.92,0-2.07,.2-3.45,.61l-.26,.09c.03-.22,.19-.73,.47-1.52,.03-.06,.14-.41,.33-1.05l.07-.21c.7,.05,1.25,.07,1.64,.07,.42,0,.81-.02,1.17-.07v-11.53c-.72-.44-1.46-.8-2.23-1.1l-.19-.07Zm7.08-.61v12.63c.45,0,.88-.04,1.29-.12v-11.53c.86-.23,1.89-.35,3.09-.35,3.05,0,5.12,1,6.21,3-1.16-.94-2.17-1.58-3.05-1.93s-1.92-.53-3.14-.53c-.95,0-1.79,.09-2.51,.28v11.06l.26-.05c3.08-.56,5.36-1.45,6.86-2.66s2.24-2.79,2.24-4.72c0-1.73-.67-3.17-2.02-4.3s-3.04-1.7-5.09-1.7c-1.64,0-3.02,.3-4.15,.91Zm11.32,14.06c.98,3.22,2.73,6.37,5.23,9.45,1.56,1.92,3.54,3.65,5.93,5.18-3.58,.95-6.94,2.41-10.08,4.36l-.21,.14-.47-.38c2.98-1.95,6.16-3.39,9.54-4.31-4.5-3-8.04-7.8-10.62-14.39l-.14-.4c4.78-1.81,7.17-4.58,7.17-8.3,0-1.53-.62-3.2-1.85-5.02,1.58,1.44,2.37,3.27,2.37,5.48,0,3.59-2.29,6.32-6.87,8.18Z"/>
    <path class="cls-1" d="M284.82,79.3c3.7-2.14,7.69-3.21,11.95-3.21,3.31,0,6.04,.72,8.19,2.16s3.22,3.27,3.22,5.48c0,1.81-.7,3.42-2.11,4.82s-3.33,2.41-5.77,3.04c1.08,2.97,2.54,5.86,4.39,8.67s3.71,4.97,5.57,6.47l-.35,.12c-2.33,.8-4.61,1.92-6.84,3.38l-.35,.23-.12-.75c-1-6.05-2.4-11.17-4.2-15.38l-.09-.23c-1.08,.5-2.52,.9-4.34,1.2l-.19,.02v8.77l4.12,4.41h-12.12l-.38-.63h11.16l-3.4-3.61v-9.45l.49-.07c1.78-.19,3.27-.54,4.48-1.05-.09-.19-.15-.3-.16-.35l-.23-.68s-.05-.14-.12-.28c-.97,.28-2.8,.59-5.48,.91l-.26,.05v10.45l2.67,2.79h-10.36l3.05-2.79v-7.88l-.19,.02c-.91,.2-1.73,.43-2.46,.68l-.19,.07-.21-.47c.69-.27,1.23-.45,1.62-.54l1.24-.3,.19-.05v-1.22c-.92,0-2.07,.2-3.45,.61l-.26,.09c.03-.22,.19-.73,.47-1.52,.03-.06,.14-.41,.33-1.05l.07-.21c.7,.05,1.25,.07,1.64,.07,.42,0,.81-.02,1.17-.07v-11.53c-.72-.44-1.46-.8-2.23-1.1l-.19-.07Zm7.08-.61v12.63c.45,0,.88-.04,1.29-.12v-11.53c.86-.23,1.89-.35,3.09-.35,3.05,0,5.12,1,6.21,3-1.16-.94-2.17-1.58-3.05-1.93s-1.92-.53-3.14-.53c-.95,0-1.79,.09-2.51,.28v11.06l.26-.05c3.08-.56,5.36-1.45,6.86-2.66s2.24-2.79,2.24-4.72c0-1.73-.67-3.17-2.02-4.3s-3.04-1.7-5.09-1.7c-1.64,0-3.02,.3-4.15,.91Zm11.32,14.06c.98,3.22,2.73,6.37,5.23,9.45,1.56,1.92,3.54,3.65,5.93,5.18-3.58,.95-6.94,2.41-10.08,4.36l-.21,.14-.47-.38c2.98-1.95,6.16-3.39,9.54-4.31-4.5-3-8.04-7.8-10.62-14.39l-.14-.4c4.78-1.81,7.17-4.58,7.17-8.3,0-1.53-.62-3.2-1.85-5.02,1.58,1.44,2.37,3.27,2.37,5.48,0,3.59-2.29,6.32-6.87,8.18Z"/>
    <path class="cls-1" d="M329.76,76.18c3.8,0,6.83,1.44,9.11,4.31s3.41,6.72,3.41,11.53c0,4.55-1.12,8.17-3.36,10.88s-5.25,4.05-9.04,4.05c-2.98,0-5.64-.95-7.97-2.86-3.42-2.81-5.13-6.98-5.13-12.49,0-4.72,1.17-8.47,3.52-11.25s5.5-4.17,9.47-4.17Zm0,2.02c-5.28,0-7.92,4.64-7.92,13.92,0,8.58,2.6,12.87,7.8,12.87,2.42,0,4.27-1.14,5.53-3.41s1.9-5.6,1.9-9.97c0-4.95-.61-8.41-1.83-10.36-1.28-2.03-3.11-3.05-5.48-3.05Zm7.48-.82c2.23,1.08,4,2.92,5.3,5.53s1.95,5.62,1.95,9.05c0,5.03-1.28,9.09-3.83,12.19s-5.91,4.64-10.07,4.64c-2.66,0-5.14-.9-7.45-2.7v-.12c1.94,1.42,4.37,2.13,7.29,2.13,3.92,0,7.14-1.48,9.66-4.43s3.77-6.73,3.77-11.32c0-3.42-.57-6.41-1.72-8.98s-2.78-4.48-4.89-5.74v-.26Zm-2.46,4.34l-.4-.23c-1.5-.83-2.88-1.24-4.12-1.24-4.11,0-6.16,4.04-6.16,12.12,0,5.91,1.27,9.82,3.82,11.74l-.21,.23c-1.56-1.11-2.68-2.57-3.34-4.37s-1-4.25-1-7.32c0-8.67,2.28-13.01,6.84-13.01,2.08,0,3.6,.7,4.57,2.09Z"/>
    <path class="cls-1" d="M362.11,76.18c3.8,0,6.83,1.44,9.11,4.31s3.41,6.72,3.41,11.53c0,4.55-1.12,8.17-3.36,10.88s-5.25,4.05-9.04,4.05c-2.98,0-5.64-.95-7.97-2.86-3.42-2.81-5.13-6.98-5.13-12.49,0-4.72,1.17-8.47,3.52-11.25s5.5-4.17,9.47-4.17Zm0,2.02c-5.28,0-7.92,4.64-7.92,13.92,0,8.58,2.6,12.87,7.8,12.87,2.42,0,4.27-1.14,5.53-3.41s1.9-5.6,1.9-9.97c0-4.95-.61-8.41-1.83-10.36-1.28-2.03-3.11-3.05-5.48-3.05Zm7.48-.82c2.23,1.08,4,2.92,5.3,5.53s1.95,5.62,1.95,9.05c0,5.03-1.28,9.09-3.83,12.19s-5.91,4.64-10.07,4.64c-2.66,0-5.14-.9-7.45-2.7v-.12c1.94,1.42,4.37,2.13,7.29,2.13,3.92,0,7.14-1.48,9.66-4.43s3.77-6.73,3.77-11.32c0-3.42-.57-6.41-1.72-8.98s-2.78-4.48-4.89-5.74v-.26Zm-2.46,4.34l-.4-.23c-1.5-.83-2.88-1.24-4.12-1.24-4.11,0-6.16,4.04-6.16,12.12,0,5.91,1.27,9.82,3.82,11.74l-.21,.23c-1.56-1.11-2.68-2.57-3.34-4.37s-1-4.25-1-7.32c0-8.67,2.28-13.01,6.84-13.01,2.08,0,3.6,.7,4.57,2.09Z"/>
    <path class="cls-1" d="M412.88,76.48l-3.21,3.26v24.07l2.88,2.74h-10.78l3.26-2.74v-15.77l-7.43,20.44h-2.25l-.19-.63h2.04l7.83-21.8v-3.59l-8.72,24.07h-1.64l-6.42-18.91v12.4c0,1.66,.11,2.83,.33,3.52s.73,1.45,1.55,2.27l2.11,2.67h-12.26l-.42-.63h11.51l-.87-1.29h-10.45l.49-.26c1.73-.95,2.88-1.92,3.43-2.89s.83-2.52,.83-4.63v-19.38l-3.09-2.91h12.12l-3.4,3.07,6.63,19.62,.84-2.04-6-17.39,3.07-2.27,.49,.4-2.93,2.06,5.58,16.34,6.05-16.71-2.86-3.07h11.88Zm-26.53,5.55v16.83c0,2.58,.25,4.35,.74,5.32s1.51,1.67,3.06,2.11l-.21-.35c-1.53-1.06-2.3-2.59-2.3-4.59v-15.59l-1.29-3.73Zm27.84-3.73l-2.65,1.9v23.62l4.08,4.64h-12.45l-.33-.63h11.34l-3.26-3.68v-24.35l2.77-1.9,.49,.4Z"/>
  </g>
</svg>